In.Time.2011.TS.Xvid-SiNiSTER








+7
-1

report fake
In Time.2011.TS.Xvid- SiNiSTER
donneurs: 12receveurs: 5
TÉLÉCHARGER LE TORRENT
Pour téléchargement ce torrent, vous avez besoin d'un P2P client BitTorrent Vuze
Ajouté le oct. 31, 2011 par  wolfmaner 308 dans Movies > Other Movies	
Torrent vérifié par iKickass, 2 semainesil y a . Downloaded 10 times.
COMMENTAIRES 1
TRAILER
TECHNICAL
PRINCIPAL
add to bookmarks ajouter au flux RSS s'abonner à In Time
 
Movie: In Timelien IMDB: 1637688Qualité détectée: TeleSyncnote IMDB: 6,6 (28,109 votes) Date de sortie: 28 octobre 2011Langue: 
English sous-titres: Genres: Action, Sci Fi, Thriller, Crime, Sci-Fi add movie to bookmarksEnvoyer: Justin Timberlake, Matthew Bomer, Luis CháVez, Johnny Galecki, Drew James, Vincent Kartheiser, Jesse Lee Soffer, Kris Lemche, Cillian Murphy, DeVaughn Nixon et autres
Available in versions:
DVDDVDRipScreenerTeleSyncCamiPhone
In Time.2011.TS.Xvid- SiNiSTER (Taille: 1,37 GB)
 		enjoy.txt	36 bytes
 		In Time.2011.TS.Xvid- SiNiSTER.avi	1,37 GB
 		In Time.2011.TS.Xvid- SiNiSTER.jpg	132,13 KB
 		sceneunderground org.txt	27 bytes
 		SiNiSTER NFO.nfo	4,78 KB
 		vlcsnap-00001.png	307,07 KB
 		vlcsnap-00002.png	274,68 KB
 		vlcsnap-00003.png	215,18 KB
 		vlcsnap-00004.png	210,59 KB
Description
*******************************************************************************
In Time.2011.TS.Xvid- SiNiSTER
*******************************************************************************

-------------------------------------------------------------------------------
General Information
-------------------------------------------------------------------------------





Format : AVI
Format/Info : Audio Video Interleave
File size : 1.37 GiB
Duration : 1h 41mn
Overall bit rate : 1 929 Kbps
Writing application : VirtualDubMod 1.5.4.1 (build 2178/release)
Writing library : VirtualDub build 32839/release

Video
ID : 0
Format : MPEG-4 Visual
Format profile : Advanced Simple@L5
Format settings, BVOP : Yes
Format settings, QPel : Yes
Format settings, GMC : 3 warppoints
Format settings, Matrix : Default (H.263)
Muxing mode : Packed bitstream
Codec ID : XVID
Codec ID/Hint : XviD
Duration : 1h 41mn
Bit rate : 1 791 Kbps
Width : 720 pixels
Height : 304 pixels
Display aspect ratio : 2.35:1
Frame rate : 25.000 fps
Color space : YUV
Chroma subsampling : 4:2:0
Bit depth : 8 bits
Scan type : Progressive
Bits/(Pixel*Frame) : 0.327
Stream size : 1.27 GiB (93%)
Writing library : XviD 64

Audio
ID : 1
Format : MPEG Audio
Format version : Version 1
Format profile : Layer 3
Mode : Joint stereo
Mode extension : MS Stereo
Codec ID : 55
Codec ID/Hint : MP3
Duration : 1h 41mn
Bit rate mode : Constant
Bit rate : 128 Kbps
Channel(s) : 2 channels
Sampling rate : 44.1 KHz
Stream size : 93.2 MiB (7%)
Alignment : Split accross interleaves
Interleave, duration : 40 ms (1.00 video frame)
Writing library : LAME3.98r



Video Source: Vremya.2011.D.CAMRip.1400MB.....thanks	
Audio Source: MiSTERE....thanks


Greets:
DarkScene,HDScene,Noir,CrEwSaDe,blackjesus,ViSiON,HDLiTE,UnKnOwN,iMAGiNE,
FLAWL3SS,Rx,ELEKTRI4KA,CiNEDUB,BDK,SAFCuk009,HiVE-CM8..... and everybody else we 
respect.. u know who u are


